<svg width="238" height="197" viewBox="0 0 238 197" fill="none" xmlns="http://www.w3.org/2000/svg">
<path fill-rule="evenodd" clip-rule="evenodd" d="M218.203 50.4299C220.139 45.5966 226.373 26.4204 216.268 0.441182C216.268 0.441182 200.688 -4.54924 165.205 20.0766C150.361 15.8474 134.484 15.2433 118.75 15.2433C103.016 15.2433 87.1388 15.8474 72.295 20.0766C36.8125 -4.69424 21.2325 0.441182 21.2325 0.441182C11.1388 26.4204 17.3731 45.5966 19.2969 50.4299C7.2675 63.5766 0 80.4933 0 101.035C0 178.815 49.4238 196.336 118.453 196.336C187.483 196.336 237.5 178.815 237.5 101.035C237.5 80.4933 230.221 63.5766 218.203 50.4299ZM118.75 181.534C69.7656 181.534 29.9844 179.275 29.9844 130.941C29.9844 119.462 35.625 108.587 45.125 99.6695C61.0138 84.8674 88.1719 92.7216 118.75 92.7216C149.483 92.7216 176.344 84.8674 192.375 99.6695C202.029 108.587 207.516 119.305 207.516 130.941C207.516 179.117 167.734 181.534 118.75 181.534ZM81.4981 105.868C71.7013 105.868 63.6856 117.952 63.6856 132.754C63.6856 147.556 71.6894 159.784 81.4981 159.784C91.295 159.784 99.3106 147.701 99.3106 132.754C99.3106 117.795 91.295 105.868 81.4981 105.868ZM156.002 105.868C146.205 105.868 138.189 117.795 138.189 132.754C138.189 147.701 146.205 159.784 156.002 159.784C165.799 159.784 173.814 147.701 173.814 132.754C173.814 117.795 165.953 105.868 156.002 105.868Z" fill="url(#paint0_linear_9_10)"/>
<defs>
<linearGradient id="paint0_linear_9_10" x1="118.75" y1="0" x2="118.75" y2="196.336" gradientUnits="userSpaceOnUse">
<stop stop-color="#111111"/>
<stop offset="1" stop-color="#13839B"/>
</linearGradient>
</defs>
</svg>
