<svg width="38" height="44" viewBox="0 0 38 44" fill="none" xmlns="http://www.w3.org/2000/svg">
<path d="M37.75 35.5833V37.6666H0.25V35.5833L4.41667 31.4166V18.9166C4.41667 12.4583 8.64583 6.77079 14.8333 4.93746V4.33329C14.8333 3.22822 15.2723 2.16842 16.0537 1.38701C16.8351 0.605613 17.8949 0.166626 19 0.166626C20.1051 0.166626 21.1649 0.605613 21.9463 1.38701C22.7277 2.16842 23.1667 3.22822 23.1667 4.33329V4.93746C29.3542 6.77079 33.5833 12.4583 33.5833 18.9166V31.4166L37.75 35.5833ZM23.1667 39.75C23.1667 40.855 22.7277 41.9148 21.9463 42.6962C21.1649 43.4776 20.1051 43.9166 19 43.9166C17.8949 43.9166 16.8351 43.4776 16.0537 42.6962C15.2723 41.9148 14.8333 40.855 14.8333 39.75" fill="#4ECB71"/>
</svg>
