<svg width="48" height="48" viewBox="0 0 48 48" fill="none" xmlns="http://www.w3.org/2000/svg">
<path d="M24 24C20.7916 24 18.0451 22.8576 15.7604 20.5729C13.4757 18.2882 12.3333 15.5416 12.3333 12.3333C12.3333 9.12496 13.4757 6.37843 15.7604 4.09371C18.0451 1.80899 20.7916 0.666626 24 0.666626C27.2083 0.666626 29.9548 1.80899 32.2395 4.09371C34.5243 6.37843 35.6666 9.12496 35.6666 12.3333C35.6666 15.5416 34.5243 18.2882 32.2395 20.5729C29.9548 22.8576 27.2083 24 24 24ZM0.666626 47.3333V39.1666C0.666626 37.5139 1.09246 35.9943 1.94413 34.6079C2.79579 33.2215 3.92551 32.1647 5.33329 31.4375C8.34718 29.9305 11.4097 28.7998 14.5208 28.0454C17.6319 27.2909 20.7916 26.9147 24 26.9166C27.2083 26.9166 30.368 27.2938 33.4791 28.0483C36.5902 28.8027 39.6527 29.9325 42.6666 31.4375C44.0763 32.1666 45.207 33.2244 46.0587 34.6108C46.9104 35.9972 47.3352 37.5158 47.3333 39.1666V47.3333H0.666626Z" fill="#111111"/>
</svg>
